HIERARCHY
ROOT Hips
{
	OFFSET -14.64140 90.27770 -84.91600
	CHANNELS 6 Xposition Yposition Zposition Zrotation Xrotation Yrotation
	JOINT Spine
	{
		OFFSET 0.00000 13.20850 -1.60436
		CHANNELS 3 Zrotation Xrotation Yrotation
		JOINT Spine1
		{
			OFFSET 0.00000 8.61716 0.00000
			CHANNELS 3 Zrotation Xrotation Yrotation
			JOINT Spine2
			{
				OFFSET 0.00000 8.61717 0.00000
				CHANNELS 3 Zrotation Xrotation Yrotation
				JOINT Spine3
				{
					OFFSET 0.00000 8.61717 0.00000
					CHANNELS 3 Zrotation Xrotation Yrotation
					JOINT Neck
					{
						OFFSET 0.00000 11.07920 1.10792
						CHANNELS 3 Zrotation Xrotation Yrotation
						JOINT Neck1
						{
							OFFSET 0.00000 7.08032 0.00000
							CHANNELS 3 Zrotation Xrotation Yrotation
							JOINT Head
							{
								OFFSET 0.00000 7.08031 0.00000
								CHANNELS 3 Zrotation Xrotation Yrotation
								End site
								{
									OFFSET 0.00000 0.00000 0.00000
								}
							}
						}
					}
					JOINT RightShoulder
					{
						OFFSET -0.01000 7.91373 5.19711
						CHANNELS 3 Zrotation Xrotation Yrotation
						JOINT RightArm
						{
							OFFSET -18.41580 0.00000 0.00000
							CHANNELS 3 Zrotation Xrotation Yrotation
							JOINT RightForeArm
							{
								OFFSET -29.11090 0.00000 0.00000
								CHANNELS 3 Zrotation Xrotation Yrotation
								JOINT RightHand
								{
									OFFSET -24.65040 0.00000 0.00000
									CHANNELS 3 Zrotation Xrotation Yrotation
									JOINT RightHandThumb1
									{
										OFFSET -5.35114 -0.85590 3.97906
										CHANNELS 3 Zrotation Xrotation Yrotation
										JOINT RightHandThumb2
										{
											OFFSET -4.52789 0.00000 0.00000
											CHANNELS 3 Zrotation Xrotation Yrotation
											JOINT RightHandThumb3
											{
												OFFSET -2.46976 0.00000 0.00000
												CHANNELS 3 Zrotation Xrotation Yrotation
												End site
												{
													OFFSET 0.00000 0.00000 0.00000
												}
											}
										}
									}
									JOINT RightHandIndex1
									{
										OFFSET -14.26970 0.00000 2.88139
										CHANNELS 3 Zrotation Xrotation Yrotation
										JOINT RightHandIndex2
										{
											OFFSET -5.48836 0.00000 0.00000
											CHANNELS 3 Zrotation Xrotation Yrotation
											JOINT RightHandIndex3
											{
												OFFSET -3.01859 0.00000 0.00000
												CHANNELS 3 Zrotation Xrotation Yrotation
												End site
												{
													OFFSET 0.00000 0.00000 0.00000
												}
											}
										}
									}
									JOINT RightHandMiddle1
									{
										OFFSET -14.26970 0.00000 -0.09147
										CHANNELS 3 Zrotation Xrotation Yrotation
										JOINT RightHandMiddle2
										{
											OFFSET -6.17441 0.00000 0.00000
											CHANNELS 3 Zrotation Xrotation Yrotation
											JOINT RightHandMiddle3
											{
												OFFSET -3.56743 0.00000 0.00000
												CHANNELS 3 Zrotation Xrotation Yrotation
												End site
												{
													OFFSET 0.00000 0.00000 0.00000
												}
											}
										}
									}
									JOINT RightHandRing1
									{
										OFFSET -12.69180 0.00000 -3.06433
										CHANNELS 3 Zrotation Xrotation Yrotation
										JOINT RightHandRing2
										{
											OFFSET -5.62556 0.00000 0.00000
											CHANNELS 3 Zrotation Xrotation Yrotation
											JOINT RightHandRing3
											{
												OFFSET -3.56744 0.00000 0.00000
												CHANNELS 3 Zrotation Xrotation Yrotation
												End site
												{
													OFFSET 0.00000 0.00000 0.00000
												}
											}
										}
									}
									JOINT RightHandPinky1
									{
										OFFSET -11.11390 0.00000 -6.03719
										CHANNELS 3 Zrotation Xrotation Yrotation
										JOINT RightHandPinky2
										{
											OFFSET -4.52789 0.00000 0.00000
											CHANNELS 3 Zrotation Xrotation Yrotation
											JOINT RightHandPinky3
											{
												OFFSET -2.46976 0.00000 0.00000
												CHANNELS 3 Zrotation Xrotation Yrotation
												End site
												{
													OFFSET 0.00000 0.00000 0.00000
												}
											}
										}
									}
								}
							}
						}
					}
					JOINT LeftShoulder
					{
						OFFSET 0.01000 7.91373 5.19711
						CHANNELS 3 Zrotation Xrotation Yrotation
						JOINT LeftArm
						{
							OFFSET 18.41580 0.00000 0.00000
							CHANNELS 3 Zrotation Xrotation Yrotation
							JOINT LeftForeArm
							{
								OFFSET 29.11090 0.00000 0.00000
								CHANNELS 3 Zrotation Xrotation Yrotation
								JOINT LeftHand
								{
									OFFSET 24.65040 0.00000 0.00000
									CHANNELS 3 Zrotation Xrotation Yrotation
									JOINT LeftHandThumb1
									{
										OFFSET 5.35114 -0.85590 3.97906
										CHANNELS 3 Zrotation Xrotation Yrotation
										JOINT LeftHandThumb2
										{
											OFFSET 4.52789 0.00000 0.00000
											CHANNELS 3 Zrotation Xrotation Yrotation
											JOINT LeftHandThumb3
											{
												OFFSET 2.46977 0.00000 0.00000
												CHANNELS 3 Zrotation Xrotation Yrotation
												End site
												{
													OFFSET 0.00000 0.00000 0.00000
												}
											}
										}
									}
									JOINT LeftHandIndex1
									{
										OFFSET 14.26970 0.00000 2.88139
										CHANNELS 3 Zrotation Xrotation Yrotation
										JOINT LeftHandIndex2
										{
											OFFSET 5.48836 0.00000 0.00000
											CHANNELS 3 Zrotation Xrotation Yrotation
											JOINT LeftHandIndex3
											{
												OFFSET 3.01859 0.00000 0.00000
												CHANNELS 3 Zrotation Xrotation Yrotation
												End site
												{
													OFFSET 0.00000 0.00000 0.00000
												}
											}
										}
									}
									JOINT LeftHandMiddle1
									{
										OFFSET 14.26970 0.00000 -0.09147
										CHANNELS 3 Zrotation Xrotation Yrotation
										JOINT LeftHandMiddle2
										{
											OFFSET 6.17440 0.00000 0.00000
											CHANNELS 3 Zrotation Xrotation Yrotation
											JOINT LeftHandMiddle3
											{
												OFFSET 3.56744 0.00000 0.00000
												CHANNELS 3 Zrotation Xrotation Yrotation
												End site
												{
													OFFSET 0.00000 0.00000 0.00000
												}
											}
										}
									}
									JOINT LeftHandRing1
									{
										OFFSET 12.69180 0.00000 -3.06433
										CHANNELS 3 Zrotation Xrotation Yrotation
										JOINT LeftHandRing2
										{
											OFFSET 5.62556 0.00000 0.00000
											CHANNELS 3 Zrotation Xrotation Yrotation
											JOINT LeftHandRing3
											{
												OFFSET 3.56744 0.00000 0.00000
												CHANNELS 3 Zrotation Xrotation Yrotation
												End site
												{
													OFFSET 0.00000 0.00000 0.00000
												}
											}
										}
									}
									JOINT LeftHandPinky1
									{
										OFFSET 11.11390 0.00000 -6.03719
										CHANNELS 3 Zrotation Xrotation Yrotation
										JOINT LeftHandPinky2
										{
											OFFSET 4.52789 0.00000 0.00000
											CHANNELS 3 Zrotation Xrotation Yrotation
											JOINT LeftHandPinky3
											{
												OFFSET 2.46976 0.00000 0.00000
												CHANNELS 3 Zrotation Xrotation Yrotation
												End site
												{
													OFFSET 0.00000 0.00000 0.00000
												}
											}
										}
									}
								}
							}
						}
					}
					JOINT pCube4
					{
						OFFSET 0.00000 10.91090 1.10792
						CHANNELS 3 Zrotation Xrotation Yrotation
						End site
						{
							OFFSET 0.00000 0.00000 0.00000
						}
					}
				}
			}
		}
	}
	JOINT RightUpLeg
	{
		OFFSET -9.98441 0.00000 0.00000
		CHANNELS 3 Zrotation Xrotation Yrotation
		JOINT RightLeg
		{
			OFFSET 0.00000 -42.11790 0.00000
			CHANNELS 3 Zrotation Xrotation Yrotation
			JOINT RightFoot
			{
				OFFSET 0.00000 -45.00020 -0.00001
				CHANNELS 3 Zrotation Xrotation Yrotation
				JOINT RightForeFoot
				{
					OFFSET 0.00000 -3.74820 0.00000
					CHANNELS 3 Zrotation Xrotation Yrotation
					JOINT RightToeBase
					{
						OFFSET 0.00000 0.06325 14.43120
						CHANNELS 3 Zrotation Xrotation Yrotation
						End site
						{
							OFFSET 0.00000 0.00000 0.00000
						}
					}
				}
			}
		}
	}
	JOINT LeftUpLeg
	{
		OFFSET 9.98441 0.00000 0.00000
		CHANNELS 3 Zrotation Xrotation Yrotation
		JOINT LeftLeg
		{
			OFFSET 0.00000 -42.11800 0.00000
			CHANNELS 3 Zrotation Xrotation Yrotation
			JOINT LeftFoot
			{
				OFFSET 0.00000 -45.00070 0.00000
				CHANNELS 3 Zrotation Xrotation Yrotation
				JOINT LeftForeFoot
				{
					OFFSET 0.00000 -3.74824 0.00000
					CHANNELS 3 Zrotation Xrotation Yrotation
					JOINT LeftToeBase
					{
						OFFSET 0.00000 0.06325 14.43110
						CHANNELS 3 Zrotation Xrotation Yrotation
						End site
						{
							OFFSET 0.00000 0.00000 0.00000
						}
					}
				}
			}
		}
	}
}
MOTION
Frames: 4
Frame Time: 0.050000
-0.03715908689524941 0.02002632699510204 -0.009289623297588426 -0.003332040096310782 -0.014159829816523773 -0.04511800776357547 -1.3167814482947076 0.7602274498462495 -0.9975983059445152 -0.9496586540945534 3.866217681973764 0.3445941825216778 -1.2005100072051218 -1.7346501266667897 -0.8144462384780057 0.9471654241003178 0.5678853665085134 -0.7470521914780707 0.780382916461287 12.414457311093146 -2.58034134971751 0.03604774539440199 -0.6583622739428779 -8.02202538531655 0.9475695469897105 -16.18288643636205 -0.6447541081084416 -4.60359512131403 1.4790855003855115 -15.657747760179872 72.79212104947602 23.01440547663323 3.6637927724300154 2.304141691485337 2.050801831176444 41.439581567151556 21.098982340837455 -0.057123229119821255 -3.899271186928194 4.507322895407773 -0.1613860214625613 -1.5996467047384517 0.009340973549720756 0.04704340239590039 -56.271187985088346 0.00844124972228614 0.03133274560562916 -56.24247829298334 -38.798226110878744 0.0010451027827743603 0.02801906983805881 0.026739634319508602 -0.016396195271176212 0.007391043974864186 -0.0017477228551949827 -0.022780479789823872 0.041241010310513145 -36.648513159047084 -0.01710055595443291 0.025572734893310342 -0.043240815590037375 0.018008803142333756 0.01173242134715068 0.03328238902425133 -0.014464417874600564 0.02359397708150095 -19.73495260086781 -0.038552700814104834 0.018970359201910644 0.04165569108237853 0.012893498850654106 -0.03633306229792178 0.016885048463411108 0.045472440680057166 -0.011212961528044423 24.063862147709504 -0.04610007303121342 -0.019598989954292545 28.90187468190924 -0.0058187917726632826 -0.0498388050724642 28.860410937053082 0.046696769297251375 -0.009922341955017254 3.5721299722590802 0.9610142463458801 13.458542029874836 -71.80991095512903 26.41198907111098 -0.21661873682166527 -3.8131247986140084 -8.724061508849587 -42.27767963761243 -14.190158184814761 -0.6209126376070283 2.938627109369633 -0.4544211321439045 0.05264555144630826 -8.12025107201843 0.01935010631502294 0.042345378403215304 44.60742503510281 -0.0034890773486066736 -0.025731065548958112 44.56584501219379 12.4312927939305 -0.038623938856716014 0.027670498549167217 -5.714935994279156e-05 0.006433680319236839 0.0015646728647541223 0.04652703153132855 0.04252319763805993 0.03476887524328662 11.13605635320539 -0.0042350916387123225 -0.04384354211822249 -0.004954890843212228 -0.021009120736213537 -1.86766336175309e-05 0.004256937395267157 0.04473086173773283 -0.04185970644358734 4.751334007399835 0.03809987747869204 0.03447659315006472 0.023044025323447088 0.02033581723613848 0.02627633920736964 -0.010792171562435027 -0.04348925101910939 -0.006190381552124225 -5.605142920180985 -0.002588139079507742 0.03776517565553173 -6.689271351217951 -0.02427064467729827 -0.0020952744207586964 -6.68900704638407 0.048359787949098385 -0.0448101151278322 -0.0070841750542376845 -0.0317877172034669 0.01645319694540597 8.062037623982679 3.5350154499235154 -19.202939111256565 0.02913039014101138 10.357367632431933 0.008475335262352736 -5.597678117853166 -15.676935556663926 3.1901650822883534 -0.03146153533015295 -0.006589865099958507 -0.015111722955359515 -0.00219347773350251 4.689531118411856 -0.04980274894989519 12.418079515599029 -8.214608023322311 6.8780422679469915 -0.012756807770867799 46.385109405093424 0.0032847756581465106 -4.320255036432276 -14.731342802930874 -3.877033326338138 -0.017673096012115315 -0.04475793307296407 -0.0019525153532531686 0.04999718150738512 -10.758416320675405 -0.02664229638418963 
-0.017866770494703307 -0.0363649601789554 0.034133888604979255 0.008549437559777944 -0.025071164372143552 0.03713358602099084 -1.253054981343129 0.8589778671883279 -1.0475080834074677 -0.8855708097880037 3.923087829787126 0.3741511113911696 -1.1933054606467859 -1.7593421392959898 -0.8023478295764667 1.04867979439398 0.4759171089147062 -0.7828036178636127 0.8571172693214965 12.40842724758431 -2.873345573581885 0.07551173215444942 -0.7492526874729455 -8.521642325780432 1.016636103003809 -16.33298671159539 -0.6789654247901499 -4.693095274252369 1.5555776969882236 -15.788611508750016 73.04753970845056 22.5986178031656 3.4677741117694363 2.02038829424952 1.94729095727256 42.022157961822316 20.664086869423468 -0.1148671107719461 -3.8849993294347787 4.479795740213433 -0.13090317813154684 -1.6184529545638875 -0.00990182456964651 -0.028602942845302654 -56.184625175567476 0.030543580026673785 -0.03000249886353831 -56.223659613674776 -38.72028299828433 0.011302832393419705 0.03027007479842894 -0.008167331564922846 0.00016405053705374295 -0.013093983547430665 0.004358157876897032 0.008739897586944236 0.034476198974128736 -36.69145135279375 -0.005778071894627369 0.029894969864151702 0.01758162780414072 0.013107530566223267 0.041499302645169184 -0.0017031344369607237 -0.015498690251053797 0.031007686849304966 -19.777518982298428 0.027610875235384497 -0.007265543573803155 0.009270844391378328 0.006162709449701616 0.00047034548990676565 0.029793854036211986 -0.01478668056933437 0.03743820123890896 24.05442525346775 -0.049414339953618804 -0.021354233804453067 28.857912385634624 0.020612018462200763 -0.031490468388719994 28.865810862535497 -0.012901660364932685 0.0021798795587465794 3.5487636511404705 0.9646695574721504 13.46258869788767 -71.98308377569496 26.856872071920627 0.01691098859652839 -2.2131262145691615 -8.99163793664844 -42.6851883902751 -13.916969546074915 -0.7282663988540982 3.146703272916006 -0.5112644544454236 0.08167152491542475 -8.117236962109306 -0.03305563420336706 -0.023994848132638687 44.57787953550873 0.02477832356839706 0.022766443681093873 44.53389464888923 12.469178535755361 -0.028399455644227033 -0.0393222937609896 -0.028180067144942204 0.033086516342936065 0.02507224450732992 0.02619714834306406 0.012337679848277843 0.02832908565941777 11.077127767723816 0.014046892127256216 0.011302865739591389 0.030126698692530013 -0.00318682343572616 -0.03633473186932707 -0.04556257044038911 -0.006313478356265255 -0.025542893857841427 4.773304593813464 -0.032153975673491916 0.03556194192833651 0.04890427110461541 0.04581220678858987 -0.026025295336780455 -0.010026278635922125 0.04167614064520989 -0.00025411042955595536 -5.616915728817052 0.040690834521372496 0.020896198567531866 -6.74337172836649 0.026328708541911997 0.030355251433856947 -6.737909706458102 -0.04844883703931115 -0.032498199187157246 0.014264147037471683 0.0496883317465442 0.02447822091358653 8.032361513076781 3.4681919432156265 -19.226574689586062 -0.042353173066065376 10.351664408561165 0.011323960813029709 -5.646746329029091 -15.696853383172202 3.1929736089408567 -0.016459626912503827 0.0066473679475988565 -0.042581153983832026 0.0038337735512667817 4.742302308985003 -0.027993289701727528 12.45553839182361 -8.277041298157211 6.866458999016277 0.038655699475338 46.41989913657466 0.03683402987469627 -4.3543425289753275 -14.74430097567701 -3.8788635539564837 -0.014232363376057135 0.041713891175591974 0.04094190242233724 -0.015460058448985863 -10.69672555149568 0.0014645051620658862 
0.0064819998951002105 -0.03732012781695573 -0.006700501677375955 0.02617223532845781 0.02522493512972711 -0.026163176458851845 -1.204635905366963 0.8100039374602089 -1.0635920014534537 -0.9274023232818006 3.883568258074256 0.408488713479069 -1.2119988453511001 -1.6879535568428676 -0.823584485697616 1.019244191802572 0.5215811205817557 -0.8199982677158922 0.9874050922731521 12.279614853695392 -3.033614475939974 0.09302269160453511 -0.9023736523428213 -8.965388379706244 1.1429004060427346 -16.540918492050775 -0.7787833923965036 -4.819385282841064 1.5424005632154412 -15.939483521917 73.04773104966873 22.224566821191384 2.8772721485574 1.6098385810792308 1.8440636249816416 42.33188037945638 20.455316552641463 -0.13884846381395852 -3.824413774088218 4.508416546592497 -0.08754754050544739 -1.5533970191296504 -0.045311320086385685 -0.030947719604428027 -56.23694854839227 0.009469512137580481 0.018939965634738938 -56.219979065035 -38.7758595715517 0.041097682494237606 0.027186255383033823 -0.019902125669351397 0.034416186527571405 -0.035700317675888854 -0.02066956073035671 -0.011246849829366504 -0.027522073882485155 -36.684414861164065 -0.020269195728989588 0.024464351749481503 0.035772157300642184 0.02015935314259472 0.011560425273421316 -0.020235837322687304 0.033515779748475034 -0.03143205189782422 -19.788615802317707 0.019537294015393017 -0.044708285723453076 0.04869784112932607 -0.03772606699736558 -0.007239050689833634 0.04695896058227039 -0.018763259930417484 0.010287710597582087 24.01471067376329 0.02153308530729889 0.03796758346537578 28.906319792316562 0.0020266540958977963 0.04188982467766356 28.84352444498595 -0.013518298220018168 0.030179378147989315 3.462195304809748 0.9625968949387177 13.55591104085744 -72.13812869360426 27.340608587863063 0.15338672478321172 -1.1369131132585595 -9.000515463059328 -42.87730644503607 -13.910973832860956 -0.7766358884601898 3.192270529715465 -0.4994018616812461 0.08368514815692238 -8.107274460756608 -0.010194675047284394 0.017698988551679416 44.576601254534566 0.01801514047651047 9.567670848339933e-05 44.61603712170678 12.437928737503753 -0.0150424737601652 0.008223424076601227 -0.042674383790136834 -0.03269855087931201 0.0022700151433257543 -0.005141146693931952 0.02485373768946618 -0.017845240904870295 11.081997984060532 -0.027998365914047568 -0.006209221383370517 -0.005271673826229312 -0.01081294230731755 -0.03267892285900001 0.018767253382891043 0.0367816510132633 -0.0011572912311540323 4.808036262951742 -0.02034419360443001 0.00404642985577656 0.01947721062784849 0.01684146191045231 0.006261985243649117 0.04293258323476786 0.01671147517210939 0.03813366167885754 -5.615979831629767 0.03845034836327428 0.028409858769653407 -6.72075150207276 0.023466286958602735 -0.019496502803539543 -6.723001463983922 -0.021256531195219273 -0.03890288507401722 -0.00793311102155828 -0.0004628432757101383 -0.024291111524473743 8.074598485993572 3.5319685672277417 -19.186794160988697 0.042624154879815114 10.38952398183367 0.0059598346483837935 -5.647890007369227 -15.610140453729047 3.235041869364659 0.04251076192551388 0.0474022759753617 0.022231221493496586 -0.028805103194188504 4.696505999752113 -0.012081684636962927 12.463012867432562 -8.245056824965088 6.874263132991869 -0.04399740611718884 46.35073151332729 -0.037916102751412155 -4.374058952741018 -14.766420539929651 -3.803816108855887 -0.033200766171836815 -0.010241672167685017 -0.04968778044234475 0.04817743274368117 -10.7366432691046 -0.0229816035428269 
0.013634885303411608 -0.04997201234749369 -0.0216548506909688 0.007389360557926494 -0.005060333583754744 0.016350360067504937 -1.1385694336319867 0.9241958303098898 -1.0279338128218602 -0.9571836198480492 3.9258650404088193 0.3968007986531064 -1.1778848174440983 -1.666211492321044 -0.7839404238468226 1.0437468439273128 0.49431380360348487 -0.8018638788623532 0.9917800696874189 12.234470814913694 -3.182291889031838 0.11883206340178039 -0.9531086299886624 -9.183856319300087 1.2461027484083236 -16.728952135336066 -0.7967284446418158 -4.9432360095296115 1.6037243561192787 -16.130866616885353 72.92136445159962 22.025819108151307 2.077625736072357 1.0885328106299201 1.5871678369363433 42.33226525052235 20.244892067796993 -0.08461719005568195 -3.823941682068764 4.492193596949136 -0.1558805701910956 -1.598051795337284 0.011574854490212842 -0.0454911202436512 -56.20066922177065 -0.015234719128992678 -0.00394242374684523 -56.27580426162966 -38.790894977030156 0.004023204717388778 -0.015496504744511619 0.00458437211920266 -0.0026749492498400734 0.008169298894483916 -0.04034994354429086 -0.038151050440209146 -0.024135505734199647 -36.64629500500228 -0.013996452823336192 -0.010724530849333872 -0.00669372900774402 0.02656539420135032 0.01679686612286628 0.01664552803946098 0.0060558303931805965 0.03129369596225468 -19.777720333174354 -0.033026455609395516 0.005919867216326636 -0.03575106006347206 0.042341112394140144 0.018319501534600054 0.018612967543626974 -0.04990857921097455 0.03147514402320567 24.017448593445582 -0.04533926538793102 -0.016972546976926992 28.883604968485372 0.005999382667472747 -0.003565323973097522 28.843155146509144 -0.04769819094418689 0.012333670619186252 3.4950644731714524 0.9545722324689375 13.568173105256873 -72.1952571106222 27.670852551652498 0.3880936061635669 -0.4377469559439069 -9.154277948112004 -42.70334320105799 -13.88234408382603 -0.7861093794677173 3.3349842089802784 -0.4582426455550288 0.04821245627428332 -8.10211630681789 0.042265085069815966 -0.03053470920046315 44.55771380825229 -0.04170053809495618 0.040181524498296615 44.59815497703272 12.442582660697031 -0.001142622372290542 -0.04771774092339014 -0.0026332427556132105 0.014026143611414294 0.009757574941231698 0.012290106907889021 -0.0256971573537944 -0.010124038511329059 11.10158440808684 0.026361351688489867 0.016984685545314855 0.030823044823275136 0.018011883780782226 -0.002295050278632066 0.008340577864401053 -0.009757422144699058 0.0433984939071797 4.8207050931103765 -0.014144178878165107 -0.010398693122132801 -0.020392495166907523 0.02187037244044724 0.005738771997917785 0.027658454608028966 0.017147000910551678 0.021959258576361006 -5.629564363644701 -0.014104750067512625 0.016377397379427547 -6.677171540419056 0.02381493712114883 0.01952073772970747 -6.677863752911587 -0.007748625419476497 0.040328694251078226 -0.01014897134437149 -0.043188926928628586 -0.02871209308284064 7.997018438963536 3.5139027535786718 -19.249104973278484 0.018589489191275708 10.414021499276434 0.0003116421444962214 -5.589591087545585 -15.673152588525875 3.191665326075963 0.009077531464810534 0.015825301741121522 0.0021606636418032826 -0.008666204923527038 4.69389954429079 -0.03926348124812828 12.452516721570738 -8.278021592587121 6.8494538735105195 -0.035252806361802745 46.35215671553562 -0.01945558139955542 -4.2917597921872845 -14.795143346183979 -3.857682755664543 -0.01883908661983349 -0.005846205546256829 0.020682551514912047 -0.04522783747285169 -10.735927089204884 -0.046217860140698494 
